# Blender v2.78 (sub 0) OBJ File: 'asteroidCDE_uv.blend'
# www.blender.org
mtllib TRY02asteroidE.mtl
o Group31791.002
v -2.098694 -3.032902 2.724320
v 0.323580 -2.575776 2.549686
v -1.842709 -1.192263 4.504360
v 3.804744 0.381631 -1.294184
v 2.912338 -1.899932 -2.778172
v 2.528558 0.414893 -2.838376
v 2.128017 -0.383812 3.514584
v 0.733345 1.196480 4.312519
v -0.842306 2.206386 4.041594
v -1.753424 -0.088341 4.776059
v 0.585398 4.517685 -1.675225
v -0.704797 4.015644 1.196400
v 2.211131 3.844720 -1.232314
v -2.984197 -0.579930 4.053507
v -2.209121 2.539482 2.143546
v 0.837314 2.266164 3.227158
v 4.000753 -1.363419 0.122447
v 4.013773 -0.578283 -0.967906
v -0.202742 -0.051642 -3.973158
v -1.871550 -2.022155 -2.546786
v -3.320881 -0.053648 1.350670
v -3.893485 -1.598448 0.112117
v -2.675152 0.085903 -3.304853
v -0.798282 2.897166 -3.923076
v -0.078896 0.951482 -4.434130
v 0.245817 3.830185 -3.318758
v 2.671761 1.272067 -3.143148
v 0.883658 1.725618 -4.394104
v 1.230129 -3.798902 -0.845940
v -1.269714 -3.473843 -1.137760
v 2.791991 -3.268906 -0.850275
v -2.903583 1.177754 -2.139367
v -1.810135 3.102556 -2.996910
v -0.646912 4.311269 -2.917307
v -1.761847 3.584908 0.018975
v 3.937612 0.466229 2.185015
v 3.794144 2.361538 0.950740
v 3.585618 -1.516121 1.268994
v 3.991593 1.816534 -0.205458
v -0.387288 -3.233350 -0.289288
v -2.755289 -2.728782 2.623635
v -3.225714 -2.670870 -1.094721
v 0.207945 3.478061 1.780022
v -3.371161 -0.714362 -0.451586
v -3.084612 -1.927554 -1.970338
v -3.693301 -0.901094 -1.842695
v -2.216231 1.979224 -0.865116
v -2.422049 0.255297 0.262889
v -2.499213 2.610899 -1.138384
v -2.381448 2.601558 0.794513
v -1.726234 1.820182 0.503175
v -2.912424 1.282356 1.709940
v 3.465509 2.095034 -1.440943
v -0.686785 2.965464 3.011940
v 0.588870 -3.822648 1.033597
v -0.976743 -4.051447 0.939590
v 2.575379 -3.042594 0.739745
v 3.938835 0.043133 0.493330
v -1.999534 -3.751995 0.282645
v 1.240270 0.539927 -2.901927
v 1.701849 -0.594640 -3.307205
v 1.607640 2.832048 1.749238
v 0.230688 1.981715 2.331244
v 1.938029 -3.968427 -0.132500
v 3.250453 0.286581 -0.349533
vt 0.6086 0.3739
vt 0.5975 0.4090
vt 0.5702 0.3693
vt 0.5915 0.5094
vt 0.6330 0.5007
vt 0.6134 0.5293
vt 0.5585 0.4307
vt 0.9166 0.6378
vt 0.9418 0.6302
vt 0.9424 0.6678
vt 0.9170 0.5356
vt 0.9413 0.5764
vt 0.8927 0.5475
vt 0.8126 0.8401
vt 0.7834 0.8011
vt 0.8177 0.7903
vt 0.9182 0.6165
vt 0.5951 0.4760
vt 0.5965 0.4949
vt 0.6900 0.4181
vt 0.7429 0.4370
vt 0.6764 0.4575
vt 0.8454 0.8242
vt 0.8691 0.8433
vt 0.6571 0.4314
vt 0.6609 0.3851
vt 0.6867 0.4020
vt 0.6617 0.3642
vt 0.7128 0.3573
vt 0.6912 0.3836
vt 0.7285 0.4820
vt 0.6910 0.4847
vt 0.6287 0.4653
vt 0.6362 0.4244
vt 0.6417 0.3903
vt 0.8603 0.7171
vt 0.8356 0.7593
vt 0.8106 0.7561
vt 0.8627 0.6216
vt 0.8707 0.5877
vt 0.5881 0.4605
vt 0.6756 0.3245
vt 0.7161 0.3072
vt 0.7070 0.2896
vt 0.7357 0.2701
vt 0.4941 0.4759
vt 0.4807 0.4986
vt 0.4627 0.4957
vt 0.8326 0.8659
vt 0.8871 0.8637
vt 0.9280 0.5885
vt 0.8153 0.9783
vt 0.8081 0.9484
vt 0.8294 0.9685
vt 0.8556 0.9025
vt 0.8702 0.9177
vt 0.8411 0.9498
vt 0.8043 0.9267
vt 0.8295 0.9110
vt 0.8605 0.7645
vt 0.7844 0.9324
vt 0.8479 0.9754
vt 0.8306 0.9529
vt 0.8576 0.9634
vt 0.8702 0.9862
vt 0.8334 0.8061
vt 0.7082 0.3264
vt 0.7347 0.3283
vt 0.7271 0.3584
vt 0.7915 0.7826
vt 0.9424 0.6076
vt 0.8764 0.7373
vt 0.7261 0.9494
vt 0.7142 0.9229
vt 0.7321 0.9081
vt 0.6120 0.4487
vt 0.8867 0.6484
vt 0.9359 0.6834
vt 0.6435 0.4559
vt 0.6585 0.4655
vt 0.5762 0.4836
vt 0.5569 0.4667
vt 0.8353 0.7804
vt 0.6591 0.4828
vt 0.7429 0.2957
vt 0.7998 0.8535
vt 0.7926 0.8379
vt 0.6524 0.3396
vt 0.8336 0.7130
vt 0.6458 0.3654
vt 0.6806 0.5069
vt 0.8639 0.8874
vt 0.6248 0.4201
vt 0.6339 0.3982
vt 0.5527 0.5179
vt 0.5372 0.4759
vt 0.5527 0.4852
vt 0.7960 0.9609
vt 0.5323 0.5057
vt 0.7205 0.4211
vt 0.9055 0.5936
vt 0.5311 0.5006
vt 0.5168 0.4926
vt 0.5311 0.4759
vt 0.4952 0.5016
vt 0.4999 0.4785
vt 0.5114 0.5173
vt 0.5402 0.5230
vt 0.6339 0.5281
vt 0.7834 0.9106
vt 0.8090 0.9025
vt 0.8295 0.9506
vt 0.7110 0.9682
vt 0.7321 0.9958
vt 0.7113 0.9489
vt 0.9424 0.6114
vt 0.4941 0.5176
vt 0.4647 0.5194
vt 0.6627 0.5345
vt 0.6362 0.5257
vt 0.6480 0.5143
vt 0.4771 0.5245
vt 0.8506 0.9014
vt 0.6656 0.5174
vt 0.6789 0.5080
vt 0.6789 0.5312
vt 0.6627 0.5080
vt 0.8335 0.9268
vt 0.6639 0.5334
vt 0.8871 0.7723
vt 0.9400 0.4964
vt 0.9229 0.5044
vt 0.9320 0.4672
vt 0.9400 0.5154
vt 0.8285 0.8749
vt 0.6324 0.4459
vn -0.1906 -0.8119 0.5518
vn 0.3005 -0.6664 0.6823
vn -0.1098 -0.4632 0.8794
vn 0.9837 0.0339 -0.1764
vn 0.5465 -0.4172 -0.7261
vn 0.4788 -0.0938 -0.8729
vn 0.4983 -0.3126 0.8087
vn 0.3478 0.2594 0.9010
vn -0.1806 0.6278 0.7572
vn -0.2011 0.0824 0.9761
vn 0.1890 0.9790 -0.0767
vn -0.1608 0.9331 0.3218
vn 0.5651 0.8138 -0.1356
vn -0.7969 0.0003 0.6040
vn -0.7167 0.6049 0.3470
vn 0.2782 0.8633 0.4210
vn 0.9439 -0.3285 0.0350
vn 0.9786 0.0438 -0.2010
vn -0.0499 -0.4466 -0.8934
vn -0.2282 -0.5975 -0.7687
vn -0.9198 0.3847 -0.0774
vn -0.9899 -0.0838 -0.1141
vn -0.6376 -0.0622 -0.7678
vn -0.3027 0.3849 -0.8719
vn -0.0095 -0.1664 -0.9860
vn 0.2943 0.6679 -0.6835
vn 0.6439 -0.0053 -0.7651
vn 0.3578 0.0880 -0.9296
vn 0.0067 -0.9048 -0.4257
vn -0.0913 -0.9119 -0.4002
vn 0.6470 -0.7267 -0.2309
vn -0.9378 0.3257 -0.1201
vn -0.7352 0.5083 -0.4484
vn -0.2784 0.8654 -0.4167
vn -0.6534 0.7539 0.0684
vn 0.8513 0.0452 0.5227
vn 0.7580 0.5853 0.2879
vn 0.7371 -0.5030 0.4512
vn 0.9646 0.2183 -0.1480
vn -0.1699 -0.9687 -0.1810
vn -0.6751 -0.6213 0.3978
vn -0.7449 -0.5722 -0.3431
vn 0.3570 0.7341 0.5776
vn -0.9425 0.3302 -0.0516
vn -0.7009 -0.4783 -0.5291
vn -0.9789 -0.1253 -0.1614
vn -0.9229 0.0193 0.3845
vn -0.8381 0.5442 -0.0389
vn -0.9543 0.2898 0.0734
vn -0.9759 0.2010 -0.0855
vn -0.9773 -0.0698 -0.2001
vn -0.9312 0.3488 -0.1061
vn 0.8209 0.4017 -0.4059
vn 0.0258 0.8526 0.5219
vn 0.2116 -0.8919 0.3996
vn -0.0941 -0.9935 0.0647
vn 0.5978 -0.6575 0.4586
vn 0.9845 0.0790 -0.1568
vn -0.3579 -0.9294 -0.0895
vn 0.4974 -0.1307 -0.8576
vn 0.3767 0.0677 -0.9239
vn 0.2636 0.7731 0.5770
vn 0.2969 0.9012 0.3159
vn 0.3283 -0.9439 0.0348
vn 0.9905 0.1033 -0.0907
usemtl None.003
s 1
f 1/1/1 2/2/2 3/3/3
f 4/4/4 5/5/5 6/6/6
f 7/7/7 3/3/3 2/2/2
f 8/8/8 9/9/9 10/10/10
f 11/11/11 12/12/12 13/13/13
f 14/14/14 9/15/9 15/16/15
f 16/17/16 9/9/9 8/8/8
f 17/18/17 5/5/5 18/19/18
f 19/20/19 5/21/5 20/22/20
f 21/23/21 22/24/22 14/14/14
f 23/25/23 24/26/24 25/27/25
f 26/28/26 27/29/27 28/30/28
f 5/21/5 29/31/29 30/32/30
f 17/18/17 31/33/31 5/5/5
f 32/34/32 33/35/33 23/25/23
f 34/36/34 35/37/35 12/38/12
f 36/39/36 37/40/37 8/8/8
f 2/2/2 38/41/38 7/7/7
f 26/28/26 13/42/13 27/29/27
f 39/43/39 37/44/37 36/45/36
f 29/46/29 40/47/40 30/48/30
f 14/14/14 22/24/22 41/49/41
f 22/24/22 42/50/42 41/49/41
f 19/20/19 20/22/20 23/25/23
f 13/13/13 12/12/12 43/51/43
f 39/43/39 13/42/13 37/44/37
f 42/52/42 44/53/44 45/54/45
f 46/55/46 44/56/44 47/57/47
f 48/58/48 47/59/47 44/53/44
f 35/37/35 34/36/34 49/60/49
f 48/58/48 44/53/44 21/61/21
f 50/62/50 49/63/49 51/64/51
f 52/65/52 50/62/50 51/64/51
f 52/66/52 14/14/14 15/16/15
f 13/42/13 53/67/53 27/29/27
f 4/68/4 6/69/6 27/29/27
f 12/38/12 15/16/15 54/70/54
f 12/12/12 54/71/54 43/51/43
f 28/30/28 24/26/24 26/28/26
f 34/36/34 33/72/33 49/60/49
f 29/73/29 55/74/55 56/75/56
f 38/41/38 57/76/57 31/33/31
f 36/39/36 8/8/8 7/77/7
f 3/78/3 7/77/7 8/8/8
f 46/79/46 32/34/32 23/25/23
f 20/22/20 45/80/45 23/25/23
f 17/18/17 58/81/58 36/82/36
f 36/82/36 7/7/7 38/41/38
f 15/16/15 50/83/50 52/66/52
f 35/37/35 15/16/15 12/38/12
f 5/21/5 30/32/30 20/22/20
f 20/22/20 42/84/42 45/80/45
f 53/67/53 4/68/4 27/29/27
f 36/45/36 58/85/58 39/43/39
f 14/14/14 41/49/41 3/86/3
f 9/15/9 14/14/14 10/87/10
f 26/28/26 11/88/11 13/42/13
f 12/38/12 11/89/11 34/36/34
f 34/90/34 11/88/11 26/28/26
f 34/90/34 26/28/26 24/26/24
f 30/32/30 42/84/42 20/22/20
f 42/84/42 30/32/30 59/91/59
f 59/92/59 41/49/41 42/50/42
f 55/93/55 1/1/1 56/94/56
f 27/95/27 25/96/25 28/97/28
f 28/30/28 25/27/25 24/26/24
f 13/13/13 43/51/43 37/40/37
f 16/17/16 8/8/8 37/40/37
f 22/98/22 21/61/21 44/53/44
f 22/98/22 44/53/44 42/52/42
f 27/95/27 60/99/60 25/96/25
f 19/20/19 61/100/61 5/21/5
f 16/17/16 37/40/37 62/101/62
f 16/102/16 63/103/63 54/104/54
f 57/76/57 38/41/38 2/2/2
f 2/2/2 1/1/1 55/93/55
f 63/103/63 43/105/43 54/106/54
f 62/107/62 63/103/63 16/102/16
f 60/99/60 27/95/27 6/108/6
f 61/109/61 6/6/6 5/5/5
f 38/41/38 31/33/31 17/18/17
f 17/18/17 36/82/36 38/41/38
f 48/58/48 52/110/52 51/111/51
f 62/101/62 37/40/37 43/51/43
f 62/107/62 43/105/43 63/103/63
f 46/79/46 23/25/23 45/80/45
f 46/112/46 45/54/45 44/53/44
f 31/113/31 29/73/29 5/114/5
f 29/73/29 31/113/31 64/115/64
f 16/17/16 54/116/54 9/9/9
f 9/15/9 54/70/54 15/16/15
f 33/35/33 24/26/24 23/25/23
f 34/90/34 24/26/24 33/35/33
f 39/43/39 4/68/4 53/67/53
f 39/43/39 53/67/53 13/42/13
f 40/47/40 29/46/29 56/117/56
f 30/48/30 40/47/40 59/118/59
f 52/66/52 21/23/21 14/14/14
f 48/58/48 21/61/21 52/110/52
f 17/18/17 18/19/18 58/81/58
f 39/119/39 58/120/58 65/121/65
f 56/117/56 59/122/59 40/47/40
f 56/123/56 41/49/41 59/92/59
f 15/16/15 35/37/35 50/83/50
f 50/83/50 35/37/35 49/60/49
f 65/124/65 58/125/58 18/126/18
f 65/121/65 4/127/4 39/119/39
f 3/86/3 10/87/10 14/14/14
f 8/8/8 10/10/10 3/78/3
f 46/55/46 47/57/47 32/128/32
f 47/57/47 51/64/51 49/63/49
f 4/4/4 18/19/18 5/5/5
f 65/124/65 18/126/18 4/129/4
f 29/73/29 64/115/64 55/74/55
f 55/93/55 57/76/57 2/2/2
f 32/128/32 47/57/47 49/63/49
f 33/72/33 32/130/32 49/60/49
f 60/131/60 61/132/61 25/133/25
f 60/131/60 6/134/6 61/132/61
f 41/49/41 1/135/1 3/86/3
f 41/49/41 56/123/56 1/135/1
f 51/111/51 47/59/47 48/58/48
f 25/27/25 61/100/61 19/20/19
f 19/20/19 23/25/23 25/27/25
f 57/76/57 55/93/55 64/136/64
f 64/136/64 31/33/31 57/76/57
