# Blender v2.78 (sub 0) OBJ File: 'asteroidB_UV.blend'
# www.blender.org
mtllib asteroidA.mtl
o Group40004
v -7.874095 18.364883 2.647906
v -9.443834 -1.504331 1.701456
v -5.467800 1.601969 8.445221
v 5.544828 -16.398401 4.858031
v 11.781135 -12.097382 1.163191
v 11.416278 -8.229211 7.877983
v 4.506627 -18.653568 -2.290554
v 5.551599 -13.118301 -10.770077
v -3.836151 16.816824 -7.709318
v 1.137807 2.916563 -8.434652
v -7.183188 -0.014305 -7.871543
v 5.811595 24.005310 2.947160
v 14.090676 3.716578 -0.111735
v 9.473440 12.077581 -1.008970
v -7.171928 -17.797062 6.382223
v -3.405570 -21.915831 -0.166729
v 0.720917 -15.484803 10.939666
v -1.253747 -20.961609 -3.463506
v -1.162067 -13.061120 -10.884215
v -0.930023 12.967699 9.799852
v -4.319785 23.685534 5.546408
v 8.635201 11.703144 6.114725
v 11.239718 10.210509 3.021423
v -5.352956 29.677305 -2.105356
v -9.057734 6.489804 -2.177928
v -0.693940 33.292538 -0.367644
v 4.914329 19.872952 -1.948449
v -1.088672 26.713684 -6.157172
v -1.254512 24.339495 6.685896
v 3.456566 17.603821 8.708283
v 3.153004 25.411249 5.320324
v -8.602368 -15.496572 0.249396
v -7.617897 11.310712 -6.706682
v -9.939778 -1.282059 -5.387394
v -11.635500 -4.243433 -0.822085
v 13.808552 -7.040136 -0.814970
v 13.432811 -1.130345 -5.651100
v 12.402491 -4.135631 7.125510
v -2.383913 -4.170261 -9.937288
v 12.714280 -6.151922 -6.588554
v -6.121042 -5.280568 3.802747
v -6.568511 -6.136402 7.681999
v -12.996149 -13.295117 -1.422036
v -10.023441 -9.981138 3.131895
v 5.364411 8.005424 -8.316986
v 10.867941 0.709674 -7.633570
v 3.189333 -2.453853 -11.156146
v -1.861832 -11.551059 14.949899
v -13.147232 -7.843395 -7.672843
v -8.187370 -2.584684 -9.598012
v -8.566099 -9.811753 -7.890280
v 5.220083 -2.225190 11.935308
v 7.532838 3.668388 7.177694
v -12.939748 -15.312610 -5.951467
v 4.615871 5.572719 10.352136
v -0.818527 -3.549959 13.296047
v -7.864652 -14.812208 8.723049
v -5.109728 -9.044177 -11.100647
v -8.387889 -14.991377 -9.185027
v -4.320175 27.019569 -5.363130
v 6.136550 10.995078 -2.309765
v 3.172265 12.688219 -5.628084
v -6.901753 -18.227882 -5.504973
v 1.178881 10.114670 11.283060
v -2.193482 3.168375 8.392228
v 1.945855 -0.226566 11.783670
vt 0.7671 0.1502
vt 0.7094 0.0005
vt 0.7817 0.0079
vt 0.4738 0.4930
vt 0.5169 0.4486
vt 0.5514 0.4947
vt 0.4400 0.4474
vt 0.4490 0.3637
vt 0.6888 0.5529
vt 0.6002 0.4767
vt 0.6501 0.4221
vt 0.8513 0.2209
vt 0.8367 0.0439
vt 0.8626 0.1164
vt 0.3949 0.5640
vt 0.3782 0.4898
vt 0.4702 0.5518
vt 0.3877 0.4547
vt 0.3910 0.3611
vt 0.8356 0.0926
vt 0.8095 0.1827
vt 0.4860 0.2713
vt 0.4299 0.1858
vt 0.4514 0.1591
vt 0.7659 0.2491
vt 0.6997 0.0746
vt 0.7146 0.7028
vt 0.6313 0.6214
vt 0.7102 0.6331
vt 0.4353 0.3147
vt 0.4189 0.2497
vt 0.4668 0.2941
vt 0.8095 0.2793
vt 0.4326 0.8799
vt 0.4824 0.9232
vt 0.4124 0.9293
vt 0.6966 0.5016
vt 0.6746 0.3993
vt 0.7048 0.3611
vt 0.4270 0.0145
vt 0.4836 0.0418
vt 0.4587 0.0974
vt 0.3764 0.0637
vt 0.2390 0.8104
vt 0.2375 0.8755
vt 0.1865 0.8575
vt 0.0431 0.8161
vt 0.1300 0.8115
vt 0.1514 0.8542
vt 0.6045 0.9670
vt 0.6274 0.9061
vt 0.6537 0.9233
vt 0.0701 0.6129
vt 0.1359 0.5737
vt 0.1283 0.6263
vt 0.8772 0.0005
vt 0.1514 0.6836
vt 0.1495 0.7573
vt 0.0801 0.7365
vt 0.4897 0.5997
vt 0.0767 0.5530
vt 0.0285 0.5863
vt 0.0197 0.5460
vt 0.0702 0.5191
vt 0.4128 0.8436
vt 0.5847 0.5619
vt 0.3858 0.1381
vt 0.3248 0.1167
vt 0.1300 0.5318
vt 0.3678 0.2478
vt 0.3639 0.1694
vt 0.0005 0.7830
vt 0.4114 0.8738
vt 0.3801 0.9318
vt 0.3141 0.9465
vt 0.3592 0.8210
vt 0.2335 0.9217
vt 0.1892 0.8832
vt 0.0463 0.4904
vt 0.1025 0.4962
vt 0.0656 0.4465
vt 0.1545 0.4240
vt 0.7208 0.4530
vt 0.7358 0.6222
vt 0.9698 0.7720
vt 0.9434 0.7671
vt 0.9698 0.7015
vt 0.4465 0.8210
vt 0.1674 0.9269
vt 0.1185 0.9504
vt 0.1509 0.8552
vt 0.6222 0.5563
vt 0.4824 0.8628
vt 0.3625 0.2166
vt 0.3273 0.9734
vt 0.3794 0.9683
vt 0.2549 0.7604
vt 0.2197 0.7304
vt 0.1855 0.6556
vt 0.3285 0.8850
vt 0.5142 0.3600
vt 0.9017 0.3013
vt 0.8885 0.1846
vt 0.2764 0.8354
vt 0.2928 0.7304
vt 0.3060 0.8300
vt 0.6537 0.8657
vt 0.5918 0.8609
vt 0.5857 0.8984
vt 0.9017 0.0176
vt 0.7358 0.3799
vt 0.5857 0.5664
vt 0.1509 0.9707
vt 0.3141 0.6074
vt 0.4110 0.5927
vt 0.7325 0.2408
vt 0.9327 0.7340
vt 0.2754 0.8458
vt 0.2754 0.9379
vt 0.5847 0.4886
vt 0.5562 0.4216
vt 0.8356 0.1873
vt 0.9204 0.2241
vt 0.9828 0.2023
vt 0.9995 0.2503
vt 0.9028 0.1987
vt 0.9995 0.1783
vt 0.1384 0.4764
vt 0.5142 0.0436
vt 0.4738 0.0005
vt 0.1169 0.6826
vt 0.1855 0.4373
vt 0.4114 0.9721
vt 0.3060 0.9020
vt 0.0005 0.5669
vt 0.3141 0.1464
vn -0.9405 0.1759 0.2908
vn -0.8314 -0.0126 0.5556
vn -0.6683 0.1418 0.7303
vn 0.5278 -0.7689 0.3609
vn 0.8243 -0.5653 0.0295
vn 0.7493 -0.2976 0.5917
vn 0.5454 -0.8272 -0.1352
vn 0.4102 -0.4379 -0.8000
vn -0.1714 0.1366 -0.9757
vn -0.2517 0.2718 -0.9289
vn -0.4044 0.3069 -0.8616
vn 0.8767 0.4714 0.0960
vn 0.9703 0.2402 -0.0283
vn 0.6249 0.3821 -0.6808
vn -0.5115 -0.7650 0.3913
vn -0.1901 -0.9793 0.0695
vn 0.2552 -0.7221 0.6430
vn 0.1279 -0.9054 -0.4049
vn -0.0246 -0.3545 -0.9347
vn -0.3787 0.1920 0.9054
vn -0.6259 0.3713 0.6858
vn 0.7286 0.1738 0.6626
vn 0.8765 0.2696 0.3988
vn -0.7717 0.6181 -0.1500
vn -0.9858 0.1677 -0.0076
vn 0.1262 0.9920 0.0061
vn 0.7450 0.2960 -0.5978
vn 0.3037 0.4202 -0.8551
vn -0.1480 0.4563 0.8774
vn 0.3609 0.3021 0.8823
vn 0.4631 0.5349 0.7067
vn -0.5675 -0.8233 -0.0084
vn -0.7856 0.1703 -0.5948
vn -0.8696 0.3241 -0.3724
vn -0.9128 0.2222 0.3426
vn 0.9611 -0.2708 -0.0546
vn 0.8740 0.1193 -0.4710
vn 0.8246 0.0522 0.5633
vn -0.1147 0.2290 -0.9666
vn 0.8019 -0.2548 -0.5405
vn -0.8856 0.2032 0.4177
vn -0.9684 0.2434 0.0535
vn -0.9077 -0.3148 0.2775
vn -0.8306 0.2353 0.5047
vn 0.2766 0.4943 -0.8241
vn 0.5748 0.2554 -0.7774
vn 0.0391 0.1579 -0.9867
vn -0.1534 -0.2414 0.9582
vn -0.8092 0.1288 -0.5733
vn -0.3836 0.3843 -0.8397
vn -0.3498 0.0513 -0.9354
vn 0.4255 0.1439 0.8934
vn 0.6444 0.1901 0.7407
vn -0.7805 -0.5700 -0.2568
vn 0.6169 0.1540 0.7718
vn -0.1959 0.3121 0.9296
vn -0.7340 -0.2839 0.6169
vn -0.2298 0.0225 -0.9730
vn -0.3166 -0.4338 -0.8435
vn -0.5437 0.3953 -0.7403
vn 0.5457 0.3842 -0.7447
vn 0.6097 0.2649 -0.7470
vn -0.4066 -0.8570 -0.3166
vn -0.1007 0.1296 0.9864
vn -0.2760 0.1209 0.9535
vn -0.1265 0.2549 0.9587
usemtl None
s 1
f 1/1/1 2/2/2 3/3/3
f 4/4/4 5/5/5 6/6/6
f 5/5/5 7/7/7 8/8/8
f 5/5/5 4/4/4 7/7/7
f 9/9/9 10/10/10 11/11/11
f 12/12/12 13/13/13 14/14/14
f 15/15/15 16/16/16 17/17/17
f 18/18/18 19/19/19 8/8/8
f 3/3/3 20/20/20 21/21/21
f 12/22/12 22/23/22 23/24/23
f 1/1/1 24/25/24 25/26/25
f 26/27/26 27/28/27 28/29/28
f 29/30/29 30/31/30 31/32/31
f 24/25/24 21/21/21 26/33/26
f 32/34/32 16/35/16 15/36/15
f 33/37/33 34/38/34 35/39/35
f 36/40/36 37/41/37 13/42/13
f 38/43/38 36/40/36 13/42/13
f 10/44/10 39/45/39 11/46/11
f 8/47/8 40/48/40 36/49/36
f 3/50/3 41/51/41 42/52/42
f 35/53/35 43/54/43 44/55/44
f 13/13/13 37/56/37 14/14/14
f 45/57/45 46/58/46 47/59/47
f 15/15/15 17/17/17 48/60/48
f 48/60/48 17/17/17 6/6/6
f 49/61/49 35/53/35 34/62/34
f 49/61/49 34/62/34 50/63/50
f 51/64/51 49/61/49 50/63/50
f 32/34/32 15/36/15 43/65/43
f 6/6/6 52/66/52 48/60/48
f 38/43/38 53/67/53 52/68/52
f 35/53/35 49/61/49 43/54/43
f 43/54/43 49/61/49 54/69/54
f 29/30/29 20/70/20 30/31/30
f 52/68/52 53/67/53 55/71/55
f 8/47/8 47/59/47 46/58/46
f 47/59/47 8/47/8 19/72/19
f 48/73/48 56/74/56 3/75/3
f 48/73/48 3/75/3 57/76/57
f 39/45/39 58/77/58 50/78/50
f 50/78/50 11/46/11 39/45/39
f 21/21/21 1/1/1 3/3/3
f 1/1/1 21/21/21 24/25/24
f 58/79/58 51/64/51 50/63/50
f 59/80/59 19/81/19 18/82/18
f 33/37/33 25/83/25 60/84/60
f 28/85/28 60/86/60 26/87/26
f 7/7/7 4/4/4 16/16/16
f 8/8/8 7/7/7 18/18/18
f 9/9/9 60/84/60 28/29/28
f 28/29/28 10/10/10 9/9/9
f 32/34/32 43/65/43 54/88/54
f 54/69/54 49/61/49 59/80/59
f 45/89/45 61/90/61 46/91/46
f 28/29/28 62/92/62 10/10/10
f 32/34/32 63/93/63 16/35/16
f 63/93/63 32/34/32 54/88/54
f 64/94/64 52/68/52 55/71/55
f 65/95/65 3/75/3 66/96/66
f 45/97/45 10/44/10 62/98/62
f 39/45/39 10/44/10 45/97/45
f 43/54/43 57/99/57 44/55/44
f 57/76/57 3/75/3 42/100/42
f 29/30/29 31/32/31 26/101/26
f 26/102/26 12/12/12 27/103/27
f 14/104/14 46/105/46 61/106/61
f 62/92/62 28/29/28 27/28/27
f 35/39/35 25/83/25 33/37/33
f 25/26/25 2/2/2 1/1/1
f 4/4/4 6/6/6 17/17/17
f 17/17/17 16/16/16 4/4/4
f 44/107/44 41/51/41 35/108/35
f 2/109/2 41/51/41 3/50/3
f 13/42/13 23/24/23 38/43/38
f 13/42/13 12/22/12 23/24/23
f 37/56/37 46/110/46 14/14/14
f 40/48/40 8/47/8 46/58/46
f 2/111/2 25/83/25 35/39/35
f 2/109/2 35/108/35 41/51/41
f 30/31/30 64/94/64 55/71/55
f 30/31/30 22/23/22 31/32/31
f 62/92/62 27/28/27 61/112/61
f 45/89/45 62/113/62 61/90/61
f 43/114/43 15/15/15 57/115/57
f 48/60/48 57/115/57 15/15/15
f 23/24/23 53/67/53 38/43/38
f 53/67/53 23/24/23 22/23/22
f 60/116/60 25/26/25 24/25/24
f 26/87/26 60/86/60 24/117/24
f 47/118/47 39/45/39 45/97/45
f 47/118/47 19/119/19 39/45/39
f 38/120/38 6/6/6 36/121/36
f 52/66/52 6/6/6 38/120/38
f 21/21/21 29/122/29 26/33/26
f 29/122/29 21/21/21 20/20/20
f 51/64/51 58/79/58 59/80/59
f 59/80/59 49/61/49 51/64/51
f 5/5/5 8/8/8 36/121/36
f 6/6/6 5/5/5 36/121/36
f 64/123/64 65/124/65 66/125/66
f 20/126/20 3/127/3 65/124/65
f 18/82/18 63/128/63 59/80/59
f 63/128/63 54/69/54 59/80/59
f 46/129/46 37/41/37 40/130/40
f 36/40/36 40/130/40 37/41/37
f 20/126/20 65/124/65 64/123/64
f 20/70/20 64/94/64 30/31/30
f 11/11/11 33/37/33 9/9/9
f 9/9/9 33/37/33 60/84/60
f 55/71/55 22/23/22 30/31/30
f 55/71/55 53/67/53 22/23/22
f 39/45/39 19/119/19 58/77/58
f 58/79/58 19/81/19 59/80/59
f 41/51/41 44/107/44 42/52/42
f 44/55/44 57/99/57 42/131/42
f 31/32/31 22/23/22 12/22/12
f 31/32/31 12/22/12 26/101/26
f 18/18/18 7/7/7 16/16/16
f 63/128/63 18/82/18 16/132/16
f 48/73/48 52/133/52 56/74/56
f 3/75/3 56/74/56 66/96/66
f 27/103/27 12/12/12 14/14/14
f 14/104/14 61/106/61 27/134/27
f 11/135/11 50/63/50 34/62/34
f 11/11/11 34/38/34 33/37/33
f 64/94/64 66/136/66 52/68/52
f 66/96/66 56/74/56 52/133/52
