# Blender v2.78 (sub 0) OBJ File: 'asteroidB_UV.blend'
# www.blender.org
mtllib asteroidB.mtl
o Group40004.002
v 0.221422 -23.799719 -9.413304
v -3.280673 -15.457639 -14.686581
v 2.249452 -25.516581 -17.538935
v -15.887499 1.119097 -3.753272
v -13.016667 -10.688540 -11.025711
v -13.136342 -4.209529 2.679008
v -5.249871 2.824944 -27.240986
v -5.922529 17.648344 -20.377247
v -2.542025 10.260256 -22.073114
v 11.959997 -0.290023 -7.800812
v 4.572051 13.751040 -5.827921
v 9.719288 5.377320 -3.188901
v -4.217985 -15.311522 9.182835
v 4.852414 -19.042814 5.310458
v 3.667851 -15.380695 9.449467
v -14.468956 3.251961 -0.600824
v -8.402842 11.586057 3.250000
v -15.102451 18.007761 -4.379179
v -12.426405 12.256154 -23.738100
v -13.166874 19.517076 -16.571556
v -2.409666 11.726952 4.977523
v -4.023659 22.238176 -4.613253
v -11.033248 22.508484 -5.564960
v 5.192053 7.598366 -18.896326
v 0.621143 -11.902064 -25.201939
v 9.685144 -25.918139 -12.793207
v 14.170936 -14.668951 -5.922215
v 12.218127 -12.318513 -0.337978
v 11.778088 -18.290356 -0.204132
v 7.163912 -25.558041 -19.274929
v 13.346203 -21.000845 -17.557350
v 13.257077 -24.561708 -12.467647
v -7.339124 -4.087079 -27.497835
v -15.953537 1.966715 -15.285313
v -16.325924 7.589830 -20.175812
v -15.746478 -1.501204 -21.272106
v 11.299122 -15.939079 7.774142
v 3.443817 11.187383 0.315839
v -10.006619 23.356228 -11.159110
v -2.351579 21.708916 -11.006941
v -2.494327 17.240547 -18.407303
v 1.865804 12.563424 -16.575327
v 0.326827 18.995510 -9.817057
v -6.867443 -19.380821 2.032382
v -0.138614 -19.710800 1.798798
v 15.162518 -12.817020 -2.825748
v 11.307721 -2.833109 -9.172417
v 12.799396 -6.860332 1.013911
v 13.114631 -10.645385 -18.445015
v 8.445107 1.399336 -16.788055
v -9.280451 3.487387 -26.301107
v -1.532927 -5.715821 13.776756
v -8.393750 -6.344375 10.481878
v -2.208816 -12.395826 13.202345
v -6.061096 -11.896511 5.390874
v -12.381683 -7.231673 -16.005577
v -6.424474 -11.271723 -12.678440
v -6.373117 -17.610968 -5.774099
v -11.300246 -7.974975 -23.485071
v -11.332092 -4.709489 -21.120600
v 12.306874 -2.929379 3.635641
v 9.085127 -2.012338 10.564369
v 11.241224 -11.505200 10.369772
v -0.223259 9.097321 10.834488
v -7.057778 0.048109 9.523884
v 3.424497 -5.117087 14.393686
v -9.088531 -10.369106 -19.547813
v -4.149398 -18.810253 -21.788795
v 1.915704 15.000739 -6.563560
v -6.309535 8.054667 7.287690
v 0.813553 -15.987659 -25.064987
v 5.194967 -20.284765 -22.579752
v -9.440713 0.079830 3.254781
v -8.886478 5.673347 3.474731
v 11.055989 -13.347214 -12.663506
v 13.978193 -9.551057 -12.813997
v 14.222720 -21.415739 -2.064013
v 15.098951 -20.077026 -10.256866
v -16.427006 7.810094 -7.130069
v -16.907478 7.759593 -12.652117
v -15.151655 20.363173 -9.246067
v -16.977774 12.302776 -17.107960
v 5.963893 -18.483875 2.779358
v 9.520750 -23.254751 0.337830
v -1.386316 13.786401 -5.043397
v -0.530639 -22.146025 -1.533596
v 6.293048 7.386397 -10.060540
v -4.271052 -17.919127 2.665561
v -5.295100 -18.757221 -10.165634
v 9.953362 1.040992 0.320525
v 8.285241 0.066115 5.512309
v 3.374233 4.605147 12.403997
v 2.253839 9.598599 7.925951
v -12.580016 -6.228133 -17.460081
v 12.962128 -14.976931 -16.630520
v 7.295701 -11.024841 14.807152
v 7.677147 -11.905253 12.034645
v -14.083282 -2.942505 -9.866565
v 3.078762 2.286873 -1.212956
v 4.519839 5.581100 5.389152
v 7.889955 -16.565718 10.390121
v 4.866192 6.410918 -0.622805
v -3.036004 -14.236382 -24.336823
v -6.769370 -13.648115 -21.575941
v -3.199180 -9.478210 -14.035347
v -12.396411 0.002979 -11.671463
v -13.679460 6.362795 -15.900293
v 10.060209 -8.321538 2.453214
vt 0.1175 0.9344
vt 0.0400 0.9154
vt 0.1175 0.8693
vt 0.6178 0.1747
vt 0.5665 0.0854
vt 0.6692 0.1296
vt 0.1081 0.1782
vt 0.1956 0.1024
vt 0.1726 0.1558
vt 0.5191 0.7358
vt 0.5814 0.6322
vt 0.5695 0.7111
vt 0.8145 0.7382
vt 0.7368 0.7177
vt 0.7731 0.6946
vt 0.6449 0.1898
vt 0.6987 0.2563
vt 0.6188 0.3048
vt 0.1297 0.0840
vt 0.1979 0.0463
vt 0.8936 0.5072
vt 0.8779 0.3993
vt 0.9281 0.3795
vt 0.2041 0.2095
vt 0.0730 0.2918
vt 0.9383 0.9159
vt 0.8799 0.8845
vt 0.9493 0.8509
vt 0.2085 0.5699
vt 0.1923 0.5224
vt 0.2395 0.5226
vt 0.2907 0.6986
vt 0.2498 0.6603
vt 0.2816 0.6291
vt 0.0653 0.2050
vt 0.6635 0.7462
vt 0.6827 0.8027
vt 0.6240 0.7750
vt 0.9316 0.6288
vt 0.8671 0.6348
vt 0.9061 0.5889
vt 0.8769 0.4496
vt 0.8616 0.5233
vt 0.8190 0.4924
vt 0.2482 0.0462
vt 0.2698 0.0950
vt 0.2161 0.1210
vt 0.2261 0.1682
vt 0.2850 0.1225
vt 0.6559 0.0005
vt 0.7465 0.7634
vt 0.2676 0.4153
vt 0.2474 0.3182
vt 0.3131 0.3768
vt 0.1599 0.3482
vt 0.2034 0.2620
vt 0.6877 0.8599
vt 0.6095 0.8418
vt 0.4104 0.6862
vt 0.3721 0.7236
vt 0.3680 0.6561
vt 0.3141 0.7058
vt 0.3252 0.6654
vt 0.3383 0.7856
vt 0.5268 0.1027
vt 0.5373 0.0470
vt 0.5950 0.0129
vt 0.1606 0.7407
vt 0.1855 0.7586
vt 0.1664 0.8317
vt 0.9144 0.7416
vt 0.8542 0.7487
vt 0.8627 0.6726
vt 0.4975 0.7652
vt 0.4107 0.7532
vt 0.4406 0.6625
vt 0.7933 0.8846
vt 0.7368 0.8861
vt 0.7792 0.8430
vt 0.0411 0.8552
vt 0.7368 0.4625
vt 0.8536 0.5438
vt 0.7622 0.5081
vt 0.4540 0.7965
vt 0.0005 0.3180
vt 0.0544 0.3180
vt 0.0487 0.4230
vt 0.2488 0.7294
vt 0.3822 0.7971
vt 0.4217 0.8185
vt 0.2390 0.4208
vt 0.1835 0.3977
vt 0.2009 0.3634
vt 0.2648 0.5460
vt 0.2465 0.6073
vt 0.5933 0.2260
vt 0.5502 0.2274
vt 0.5819 0.3249
vt 0.5171 0.2642
vt 0.2401 0.4711
vt 0.2581 0.4248
vt 0.2785 0.5041
vt 0.1432 0.0175
vt 0.2333 0.0005
vt 0.3131 0.0666
vt 0.2807 0.0172
vt 0.6997 0.3516
vt 0.7547 0.2959
vt 0.8078 0.3376
vt 0.2907 0.4240
vt 0.2685 0.2286
vt 0.6987 0.0496
vt 0.3131 0.4240
vt 0.3131 0.4903
vt 0.2917 0.4813
vt 0.3069 0.1605
vt 0.8078 0.2803
vt 0.9451 0.0958
vt 0.9266 0.1361
vt 0.9028 0.0596
vt 0.9754 0.0775
vt 0.9487 0.0178
vt 0.9754 0.0005
vt 0.5814 0.7966
vt 0.9316 0.7829
vt 0.8887 0.7751
vt 0.4975 0.6489
vt 0.4932 0.7191
vt 0.7659 0.4627
vt 0.5939 0.7360
vt 0.5857 0.7691
vt 0.2053 0.6565
vt 0.1865 0.6248
vt 0.8306 0.7007
vt 0.7911 0.6380
vt 0.7720 0.6496
vt 0.7412 0.5792
vt 0.5711 0.1418
vt 0.1504 0.3814
vt 0.8088 0.3485
vt 0.8632 0.3094
vt 0.8632 0.3516
vt 0.7946 0.4373
vt 0.7789 0.3611
vt 0.9493 0.7884
vt 0.8694 0.7839
vt 0.8261 0.5547
vt 0.8769 0.5781
vt 0.9015 0.9319
vt 0.0073 0.4056
vt 0.8349 0.6337
vt 0.8589 0.5792
vt 0.9411 0.6530
vt 0.9749 0.6461
vt 0.9722 0.7005
vt 0.9327 0.6075
vt 0.9749 0.5792
vt 0.3071 0.5421
vt 0.7784 0.7777
vt 0.8306 0.7762
vt 0.0124 0.2042
vt 0.0904 0.1515
vt 0.0363 0.2890
vt 0.0029 0.2674
vt 0.8234 0.9563
vt 0.7400 0.9158
vt 0.8110 0.9140
vt 0.8510 0.8845
vt 0.8316 0.8036
vt 0.4909 0.8199
vt 0.9370 0.4878
vt 0.8316 0.6725
vt 0.0631 0.3700
vt 0.4288 0.6084
vt 0.0005 0.9385
vt 0.9694 0.1506
vt 0.9522 0.1773
vt 0.1855 0.7108
vt 0.9693 0.4022
vt 0.8100 0.3890
vt 0.6522 0.7058
vt 0.5281 0.6642
vt 0.7284 0.7038
vt 0.6751 0.9473
vt 0.6547 0.9028
vt 0.6899 0.9124
vt 0.7131 0.7438
vt 0.5782 0.6084
vt 0.7161 0.9398
vt 0.7161 0.8830
vt 0.6791 0.8609
vt 0.9346 0.2513
vt 0.9346 0.3129
vt 0.9028 0.3006
vt 0.7284 0.8086
vt 0.4985 0.7440
vt 0.5472 0.8124
vt 0.8358 0.4554
vt 0.8667 0.4094
vt 0.8724 0.3675
vt 0.9693 0.3611
vt 0.9278 0.6690
vt 0.5205 0.8887
vt 0.5572 0.9112
vt 0.5470 0.9390
vt 0.7543 0.8394
vt 0.5678 0.9585
vt 0.5153 0.1094
vt 0.7925 0.8404
vt 0.9137 0.3442
vt 0.5510 0.1636
vt 0.9356 0.3015
vt 0.9662 0.2513
vt 0.9554 0.2930
vt 0.9662 0.3385
vt 0.9591 0.5273
vt 0.6982 0.2102
vt 0.4985 0.8599
vt 0.5678 0.8134
vt 0.5418 0.8736
vt 0.8234 0.8473
vt 0.6951 0.1662
vt 0.7426 0.4176
vt 0.1645 0.6836
vn -0.5012 -0.8652 0.0178
vn -0.9212 -0.2978 -0.2505
vn -0.4399 -0.8694 -0.2251
vn -0.9856 -0.1003 0.1358
vn -0.7898 -0.5460 -0.2797
vn -0.8909 -0.0819 0.4467
vn 0.2071 0.1977 -0.9581
vn 0.1985 0.6794 -0.7065
vn 0.4933 0.4158 -0.7641
vn 0.9068 0.2125 -0.3641
vn 0.6186 0.7801 -0.0934
vn 0.8186 0.5057 0.2722
vn -0.5411 -0.6987 0.4679
vn 0.5027 -0.7671 0.3986
vn -0.0556 -0.7722 0.6329
vn -0.8032 0.0965 0.5879
vn -0.4222 0.2932 0.8578
vn -0.7883 0.3788 0.4849
vn -0.4123 0.3832 -0.8265
vn -0.5092 0.7034 -0.4959
vn -0.0482 0.8287 0.5577
vn 0.4168 0.7919 0.4462
vn -0.3107 0.8444 0.4363
vn 0.7402 0.4301 -0.5168
vn 0.2738 -0.0260 -0.9614
vn 0.1469 -0.9883 0.0418
vn 0.9956 -0.0932 0.0071
vn 0.8735 -0.1484 0.4636
vn 0.7917 -0.1726 0.5860
vn 0.1960 -0.7978 -0.5701
vn 0.7867 -0.2001 -0.5840
vn 0.6923 -0.7161 -0.0895
vn -0.2541 -0.1342 -0.9578
vn -0.9556 -0.2227 0.1927
vn -0.9675 0.0324 -0.2506
vn -0.8129 -0.3806 -0.4409
vn 0.7878 -0.5074 0.3491
vn 0.7510 0.5690 0.3348
vn -0.1453 0.9675 -0.2069
vn 0.4943 0.8400 -0.2239
vn 0.5513 0.6155 -0.5632
vn 0.7490 0.5372 -0.3878
vn 0.8402 0.5372 0.0743
vn -0.2444 -0.8984 0.3650
vn -0.2967 -0.8482 0.4387
vn 0.8639 -0.3659 0.3460
vn 0.9412 0.2766 -0.1940
vn 0.8973 -0.0721 0.4355
vn 0.8152 0.0937 -0.5715
vn 0.8298 0.3332 -0.4477
vn -0.4260 0.0543 -0.9031
vn -0.2552 0.1778 0.9504
vn -0.7230 -0.0807 0.6861
vn -0.3040 -0.4568 0.8360
vn -0.7802 -0.5758 0.2443
vn -0.8381 -0.5072 -0.2008
vn -0.3400 -0.6862 -0.6431
vn -0.6445 -0.7536 -0.1293
vn -0.8796 -0.3453 -0.3272
vn -0.8336 -0.3792 -0.4016
vn 0.9347 0.2660 0.2356
vn 0.7504 0.3672 0.5496
vn 0.8117 -0.0621 0.5808
vn -0.0413 0.6421 0.7655
vn -0.6482 0.2614 0.7152
vn 0.0656 0.1770 0.9820
vn -0.6869 -0.7094 0.1577
vn -0.7363 -0.5870 -0.3365
vn 0.5056 0.8332 0.2241
vn -0.6963 0.5489 0.4624
vn 0.0608 -0.2555 -0.9649
vn 0.2804 -0.3213 -0.9045
vn -0.7549 0.3059 0.5801
vn -0.7273 0.1704 0.6648
vn 0.9912 -0.1290 0.0303
vn 0.9939 0.0433 -0.1014
vn 0.8146 -0.3352 0.4734
vn 0.9972 -0.0187 -0.0726
vn -0.9901 -0.0378 0.1349
vn -0.9834 -0.1010 -0.1509
vn -0.8171 0.5762 0.0178
vn -0.9629 0.1233 -0.2401
vn 0.2165 -0.8112 0.5432
vn 0.2438 -0.7128 0.6576
vn 0.4523 0.7866 0.4203
vn -0.4636 -0.8060 0.3680
vn 0.8282 0.4947 -0.2636
vn -0.2281 -0.8836 0.4088
vn -0.7679 -0.5453 -0.3359
vn 0.1680 0.7234 0.6697
vn 0.6860 0.7189 0.1121
vn 0.3602 0.4146 0.8357
vn 0.5893 0.7309 0.3443
vn -0.8685 -0.4597 -0.1853
vn 0.9477 -0.0140 -0.3188
vn 0.5237 -0.3272 0.7865
vn 0.5747 -0.4200 0.7024
vn -0.9506 -0.0078 -0.3102
vn 0.7108 0.3603 0.6041
vn 0.9189 0.3930 -0.0344
vn 0.0968 -0.7126 0.6948
vn 0.7289 0.0247 0.6841
vn -0.3441 -0.3403 -0.8751
vn -0.7662 -0.6407 -0.0497
vn -0.6071 -0.7175 -0.3413
vn -0.9740 -0.2058 -0.0944
vn -0.9958 0.0423 -0.0806
vn 0.9492 -0.1040 0.2971
usemtl None.001
s 1
f 1/1/1 2/2/2 3/3/3
f 4/4/4 5/5/5 6/6/6
f 7/7/7 8/8/8 9/9/9
f 10/10/10 11/11/11 12/12/12
f 13/13/13 14/14/14 15/15/15
f 16/16/16 17/17/17 18/18/18
f 19/19/19 20/20/20 8/8/8
f 21/21/21 22/22/22 23/23/23
f 7/7/7 24/24/24 25/25/25
f 3/26/3 26/27/26 1/28/1
f 27/29/27 28/30/28 29/31/29
f 30/32/30 31/33/31 32/34/32
f 7/7/7 25/25/25 33/35/33
f 34/36/34 35/37/35 36/38/36
f 28/39/28 37/40/37 29/41/29
f 12/42/12 11/43/11 38/44/38
f 39/45/39 40/46/40 41/47/41
f 42/48/42 41/47/41 43/49/43
f 6/6/6 5/5/5 44/50/44
f 14/14/14 13/13/13 45/51/45
f 46/52/46 47/53/47 48/54/48
f 49/55/49 25/25/25 50/56/50
f 19/19/19 8/8/8 7/7/7
f 19/57/19 51/58/51 36/38/36
f 52/59/52 53/60/53 54/61/54
f 55/62/55 13/63/13 6/64/6
f 56/65/56 57/66/57 58/67/58
f 59/68/59 60/69/60 51/70/51
f 61/71/61 62/72/62 63/73/63
f 64/74/64 65/75/65 66/76/66
f 67/77/67 57/78/57 56/79/56
f 68/80/68 3/3/3 2/2/2
f 64/81/64 69/82/69 21/83/21
f 65/75/65 64/74/64 70/84/70
f 68/85/68 71/86/71 30/87/30
f 72/88/72 31/33/31 30/32/30
f 73/89/73 65/75/65 74/90/74
f 13/63/13 53/60/53 6/64/6
f 27/91/27 75/92/75 76/93/76
f 77/94/77 78/95/78 27/29/27
f 79/96/79 16/16/16 18/18/18
f 80/97/80 81/98/81 82/99/82
f 29/31/29 77/94/77 27/29/27
f 83/100/83 45/101/45 84/102/84
f 82/103/82 81/104/81 20/20/20
f 22/105/22 39/45/39 23/106/23
f 39/45/39 22/105/22 40/46/40
f 21/107/21 85/108/85 22/109/22
f 44/50/44 5/5/5 58/67/58
f 86/110/86 84/102/84 45/101/45
f 47/53/47 50/56/50 87/111/87
f 50/56/50 76/93/76 49/55/49
f 6/6/6 44/50/44 55/112/55
f 58/113/58 88/114/88 44/115/44
f 69/116/69 42/48/42 43/49/43
f 22/109/22 85/108/85 43/117/43
f 89/118/89 2/119/2 1/120/1
f 58/121/58 86/122/86 45/123/45
f 12/12/12 61/124/61 10/10/10
f 90/125/90 91/126/91 61/71/61
f 62/127/62 92/128/92 66/76/66
f 93/129/93 38/44/38 69/82/69
f 36/38/36 94/130/94 34/36/34
f 36/38/36 51/58/51 60/131/60
f 72/88/72 95/132/95 31/33/31
f 27/29/27 78/95/78 75/133/75
f 54/134/54 15/15/15 96/135/96
f 97/136/97 62/137/62 96/135/96
f 5/5/5 56/65/56 58/67/58
f 56/65/56 5/5/5 98/138/98
f 75/92/75 95/139/95 76/93/76
f 78/95/78 95/132/95 75/133/75
f 99/140/99 91/141/91 90/142/90
f 100/143/100 93/129/93 62/144/62
f 32/34/32 78/95/78 77/94/77
f 86/145/86 26/27/26 84/146/84
f 36/38/36 35/37/35 19/57/19
f 19/19/19 82/103/82 20/20/20
f 85/147/85 69/82/69 43/148/43
f 69/82/69 85/147/85 21/83/21
f 3/26/3 30/149/30 26/27/26
f 3/150/3 68/85/68 30/87/30
f 29/31/29 83/100/83 84/102/84
f 29/41/29 101/151/101 83/152/83
f 102/153/102 99/154/99 90/155/90
f 99/154/99 100/156/100 91/157/91
f 88/114/88 55/158/55 44/115/44
f 88/159/88 13/13/13 55/160/55
f 33/35/33 59/161/59 51/162/51
f 71/86/71 68/85/68 103/163/103
f 100/143/100 38/44/38 93/129/93
f 102/153/102 100/156/100 99/154/99
f 103/163/103 68/85/68 104/164/104
f 68/165/68 105/166/105 104/167/104
f 84/146/84 32/168/32 77/169/77
f 77/94/77 29/31/29 84/102/84
f 21/170/21 70/84/70 64/74/64
f 21/21/21 23/23/23 17/171/17
f 33/35/33 51/162/51 7/7/7
f 7/7/7 51/162/51 19/19/19
f 37/40/37 101/151/101 29/41/29
f 63/73/63 62/72/62 97/172/97
f 49/55/49 76/93/76 95/139/95
f 72/173/72 49/55/49 95/139/95
f 4/4/4 16/16/16 79/96/79
f 54/61/54 96/174/96 66/76/66
f 62/127/62 66/76/66 96/174/96
f 95/132/95 78/95/78 31/33/31
f 32/34/32 31/33/31 78/95/78
f 67/77/67 105/166/105 57/78/57
f 68/80/68 2/2/2 105/175/105
f 39/45/39 20/20/20 81/104/81
f 8/8/8 20/20/20 39/45/39
f 89/118/89 57/176/57 2/119/2
f 2/119/2 57/176/57 105/177/105
f 13/63/13 54/61/54 53/60/53
f 13/13/13 15/15/15 54/134/54
f 50/56/50 25/25/25 24/24/24
f 87/111/87 50/56/50 24/24/24
f 60/69/60 59/68/59 67/178/67
f 59/161/59 103/163/103 104/164/104
f 18/179/18 17/171/17 23/23/23
f 81/104/81 23/106/23 39/45/39
f 100/143/100 62/144/62 91/180/91
f 62/72/62 61/71/61 91/126/91
f 103/163/103 25/25/25 71/86/71
f 72/173/72 25/25/25 49/55/49
f 34/36/34 94/130/94 106/181/106
f 98/138/98 4/4/4 79/96/79
f 1/120/1 86/122/86 58/121/58
f 1/28/1 26/27/26 86/145/86
f 38/44/38 11/43/11 69/82/69
f 11/11/11 10/10/10 87/182/87
f 34/36/34 106/181/106 79/183/79
f 34/184/34 80/185/80 107/186/107
f 25/25/25 103/163/103 33/35/33
f 33/35/33 103/163/103 59/161/59
f 47/53/47 76/93/76 50/56/50
f 47/53/47 46/52/46 76/93/76
f 34/36/34 79/183/79 80/187/80
f 79/96/79 81/98/81 80/97/80
f 58/121/58 57/176/57 89/118/89
f 89/118/89 1/120/1 58/121/58
f 11/11/11 87/182/87 69/188/69
f 42/48/42 69/116/69 87/111/87
f 34/189/34 107/186/107 35/190/35
f 82/191/82 107/186/107 80/185/80
f 63/73/63 97/172/97 101/151/101
f 83/192/83 101/193/101 15/194/15
f 35/190/35 107/186/107 82/191/82
f 82/195/82 19/57/19 35/37/35
f 47/196/47 87/182/87 10/10/10
f 47/196/47 10/10/10 48/197/48
f 53/60/53 65/75/65 6/64/6
f 53/60/53 52/59/52 65/75/65
f 102/198/102 90/199/90 12/42/12
f 12/42/12 90/199/90 61/200/61
f 42/48/42 87/111/87 24/24/24
f 9/9/9 24/24/24 7/7/7
f 23/23/23 81/201/81 18/179/18
f 79/96/79 18/18/18 81/98/81
f 28/39/28 108/202/108 63/73/63
f 48/203/48 28/204/28 46/205/46
f 88/159/88 58/206/58 45/51/45
f 45/51/45 13/13/13 88/159/88
f 27/91/27 76/93/76 46/52/46
f 28/204/28 27/207/27 46/205/46
f 52/59/52 66/76/66 65/75/65
f 54/61/54 66/76/66 52/59/52
f 56/65/56 98/138/98 94/208/94
f 67/77/67 56/79/56 94/209/94
f 38/44/38 102/198/102 12/42/12
f 102/198/102 38/44/38 100/143/100
f 15/194/15 101/193/101 97/210/97
f 97/136/97 96/135/96 15/15/15
f 74/90/74 65/75/65 70/84/70
f 21/170/21 74/90/74 70/84/70
f 98/138/98 106/211/106 94/208/94
f 98/138/98 79/96/79 106/211/106
f 83/212/83 15/213/15 14/214/14
f 45/215/45 83/212/83 14/214/14
f 17/171/17 74/216/74 21/21/21
f 17/17/17 16/16/16 74/217/74
f 61/218/61 63/219/63 108/220/108
f 108/220/108 28/204/28 48/203/48
f 60/131/60 94/130/94 36/38/36
f 60/221/60 67/77/67 94/209/94
f 73/89/73 6/64/6 65/75/65
f 16/16/16 73/222/73 74/217/74
f 61/218/61 108/220/108 48/203/48
f 10/10/10 61/124/61 48/197/48
f 43/49/43 40/46/40 22/105/22
f 41/47/41 40/46/40 43/49/43
f 73/222/73 16/16/16 6/6/6
f 6/6/6 16/16/16 4/4/4
f 63/73/63 37/40/37 28/39/28
f 63/73/63 101/151/101 37/40/37
f 41/47/41 42/48/42 9/9/9
f 42/48/42 24/24/24 9/9/9
f 71/86/71 25/25/25 72/173/72
f 72/173/72 30/87/30 71/86/71
f 9/9/9 8/8/8 41/47/41
f 41/47/41 8/8/8 39/45/39
f 62/144/62 93/129/93 92/223/92
f 64/81/64 93/129/93 69/82/69
f 59/68/59 104/224/104 67/178/67
f 67/77/67 104/167/104 105/166/105
f 30/149/30 32/168/32 26/27/26
f 32/168/32 84/146/84 26/27/26
f 92/223/92 93/129/93 64/81/64
f 66/76/66 92/128/92 64/74/64
f 98/138/98 5/5/5 4/4/4
