# Blender v2.78 (sub 0) OBJ File: 'spaceDebrisA06_uv.blend'
# www.blender.org
mtllib spaceDebrisA.mtl
o Cube.001
v -0.596237 0.490665 1.720116
v -0.596237 -0.490666 1.720116
v -1.562659 0.490665 1.890523
v -1.562659 -0.490666 1.890523
v -1.079448 0.598839 1.805320
v -1.079448 -0.598839 1.805320
v 0.533782 0.490665 7.042562
v 0.533782 -0.490666 7.042562
v -0.432641 0.035166 7.204303
v -0.432641 -0.490666 7.708670
v 0.050570 0.374804 7.078217
v 0.050570 -0.560557 7.507584
v -0.107831 0.598838 6.708262
v -0.833348 0.490665 6.026652
v -0.775072 0.804152 -0.111812
v 1.195228 0.180447 -0.224204
v -0.848013 0.593591 -0.593370
v 1.552647 0.004675 -0.699493
v -0.993895 0.017618 -0.697161
v 1.406765 -0.571298 -0.803284
v -1.066837 -0.347794 -0.319393
v 1.333823 -0.936710 -0.425517
v -0.993895 -0.137233 0.162165
v 1.406764 -0.726149 0.056042
v -0.848013 0.438740 0.265956
v 1.184475 -0.179938 0.154469
v -0.136321 0.059463 0.329948
v 2.876544 0.059464 1.240913
v -0.218130 -0.526394 0.658151
v 3.436473 -0.526394 1.569115
v -0.381749 -0.526394 1.314556
v 3.272854 -0.526394 2.225521
v -0.463559 0.059463 1.642758
v 3.191045 0.059464 2.553723
v -0.381749 0.645321 1.314556
v 3.272854 0.645321 2.225521
v -0.218130 0.645321 0.658151
v 2.887468 0.645321 1.569116
v -3.659089 0.059464 -0.743247
v -2.306108 0.059463 -0.743247
v -3.659089 -0.526394 -0.405002
v -2.306108 -0.526394 -0.405002
v -3.659089 -0.526394 0.271489
v -2.306108 -0.526394 0.271489
v -3.659089 0.059464 0.609734
v -2.306108 0.059463 0.609734
v -3.659089 0.645321 0.271489
v -2.306108 0.645321 0.271489
v -3.659089 0.645321 -0.405001
v -2.306108 0.645321 -0.405002
vt 0.1682 0.0049
vt 0.1685 0.0285
vt 0.0380 0.0301
vt 0.0377 0.0066
vt 0.1388 0.3937
vt 0.1508 0.3936
vt 0.1496 0.5135
vt 0.1357 0.5242
vt 0.2311 0.5882
vt 0.2184 0.6082
vt 0.2156 0.5837
vt 0.2058 0.6009
vt 0.1985 0.3933
vt 0.2105 0.3934
vt 0.2139 0.5239
vt 0.2003 0.5327
vt 0.1864 0.3933
vt 0.1880 0.5354
vt 0.1629 0.3935
vt 0.1639 0.4942
vt 0.0222 0.0377
vt 0.0009 0.0488
vt 0.0141 0.0199
vt 0.0264 0.0275
vt 0.1746 0.5242
vt 0.2029 0.5837
vt 0.0659 0.5106
vt 0.0162 0.5098
vt 0.0062 0.4987
vt 0.0656 0.4979
vt 0.0060 0.4842
vt 0.0654 0.4834
vt 0.0058 0.4715
vt 0.0652 0.4707
vt 0.0057 0.4588
vt 0.0650 0.4579
vt 0.2029 0.6134
vt 0.2157 0.6323
vt 0.2029 0.6389
vt 0.0139 0.4470
vt 0.0648 0.4435
vt 0.0652 0.5233
vt 0.0141 0.5221
vt 0.2164 0.6198
vt 0.1910 0.6344
vt 0.1910 0.6217
vt 0.1247 0.8974
vt 0.2001 0.8989
vt 0.2151 0.9137
vt 0.1247 0.9136
vt 0.2151 0.9299
vt 0.1247 0.9298
vt 0.2150 0.9461
vt 0.1247 0.9460
vt 0.2150 0.9624
vt 0.1247 0.9623
vt 0.2240 0.9323
vt 0.2500 0.9152
vt 0.2565 0.9323
vt 0.2022 0.9754
vt 0.1247 0.9785
vt 0.2004 0.9914
vt 0.1250 0.9947
vt 0.2339 0.9138
vt 0.2484 0.9463
vt 0.2322 0.9463
vt 0.0172 0.3696
vt 0.0496 0.3675
vt 0.0507 0.3837
vt 0.0183 0.3858
vt 0.0517 0.3999
vt 0.0193 0.4020
vt 0.0528 0.4161
vt 0.0204 0.4182
vt 0.0539 0.4323
vt 0.0215 0.4344
vt 0.0151 0.3372
vt 0.0475 0.3351
vt 0.0485 0.3513
vt 0.0162 0.3534
vn 0.7421 -0.6522 -0.1545
vn 0.7530 0.6386 -0.1590
vn 0.6579 0.5464 0.5183
vn 0.8118 -0.4987 0.3037
vn -0.0006 1.0000 -0.0016
vn -0.1797 0.9427 0.2810
vn -0.1172 0.5885 0.8000
vn 0.3523 -0.5145 0.7817
vn -0.4712 0.5752 0.6686
vn -0.0053 -1.0000 0.0037
vn -0.7416 -0.6557 0.1416
vn -0.3618 -0.2399 0.9008
vn -0.7737 0.6168 0.1447
vn -0.7574 0.6182 0.2100
vn 0.2852 0.9323 0.2225
vn 0.5017 0.8239 0.2634
vn 0.7508 0.4436 -0.4893
vn 0.1410 0.6438 -0.7521
vn 0.5091 -0.3724 -0.7759
vn -0.1123 -0.2866 -0.9514
vn 0.3873 -0.9073 -0.1635
vn -0.2419 -0.9549 -0.1721
vn 0.5791 -0.4987 0.6449
vn -0.1123 -0.6007 0.7916
vn 0.4440 0.2625 0.8567
vn 0.1463 0.3015 0.9422
vn 0.2739 0.0487 -0.9605
vn 0.4482 0.1025 -0.8880
vn 0.7456 -0.5511 -0.3746
vn 0.1447 -0.8358 -0.5296
vn 0.4960 -0.6862 0.5320
vn -0.1209 -0.8660 0.4852
vn 0.4002 0.0000 0.9164
vn -0.2419 0.0000 0.9703
vn 0.5884 0.7244 0.3590
vn -0.1209 0.8660 0.4852
vn 0.3978 0.7907 -0.4653
vn 0.1477 0.8556 -0.4960
vn 0.0000 0.0000 -1.0000
vn 0.0000 -0.8660 -0.5000
vn 0.0000 -0.8660 0.5000
vn 0.0000 0.0000 1.0000
vn 0.0000 0.8660 0.5000
vn 0.0000 0.8660 -0.5000
usemtl connections
s 1
f 2/1/1 1/2/2 7/3/3 8/4/4
f 1/5/2 5/6/5 13/7/6 7/8/3
f 8/9/4 11/10/7 12/11/8
f 9/12/9 12/11/8 11/10/7
f 6/13/10 2/14/1 8/15/4 12/16/8
f 4/17/11 6/13/10 12/16/8 10/18/12
f 3/19/13 4/17/11 10/18/12 14/20/14
f 5/6/5 3/19/13 14/20/14 13/7/6
f 13/21/6 14/22/14 9/23/9 11/24/7
f 7/3/3 13/21/6 11/24/7
f 14/20/14 10/18/12 9/25/9
f 12/11/8 9/12/9 10/26/12
f 15/27/15 16/28/16 18/29/17 17/30/18
f 17/30/18 18/29/17 20/31/19 19/32/20
f 19/32/20 20/31/19 22/33/21 21/34/22
f 21/34/22 22/33/21 24/35/23 23/36/24
f 18/37/17 26/38/25 24/39/23
f 23/36/24 24/35/23 26/40/25 25/41/26
f 25/42/26 26/43/25 16/28/16 15/27/15
f 26/38/25 18/37/17 16/44/16
f 24/39/23 22/45/21 20/46/19 18/37/17
f 27/47/27 28/48/28 30/49/29 29/50/30
f 29/50/30 30/49/29 32/51/31 31/52/32
f 31/52/32 32/51/31 34/53/33 33/54/34
f 33/54/34 34/53/33 36/55/35 35/56/36
f 30/57/29 38/58/37 36/59/35
f 35/56/36 36/55/35 38/60/37 37/61/38
f 37/61/38 38/60/37 28/62/28 27/63/27
f 38/58/37 30/57/29 28/64/28
f 36/59/35 34/65/33 32/66/31 30/57/29
f 39/67/39 40/68/39 42/69/40 41/70/40
f 41/70/40 42/69/40 44/71/41 43/72/41
f 43/72/41 44/71/41 46/73/42 45/74/42
f 45/74/42 46/73/42 48/75/43 47/76/43
f 47/77/43 48/78/43 50/79/44 49/80/44
f 49/80/44 50/79/44 40/68/39 39/67/39
f 11/24/7 8/4/4 7/3/3
o Cube.000
v -4.704550 -0.173018 -12.994886
v -2.666870 0.008781 -2.880507
v -4.704550 1.000000 -12.994886
v -2.639337 0.888098 -2.724362
v -2.734935 -0.173018 -13.342183
v -1.190406 0.008781 -3.140847
v -2.734935 1.000000 -13.342183
v -1.162874 0.888098 -2.984702
v -3.719743 1.111400 -13.168534
v -1.901105 0.971606 -2.854532
v -4.905411 -1.770561 -12.979773
v -4.905411 1.281762 -12.979773
v -2.541018 -1.770561 -13.396679
v -2.541018 1.281762 -13.396679
v -2.585707 -1.770561 -13.650120
v -4.950099 -1.770561 -13.233213
v -4.950099 1.281762 -13.233213
v -2.585707 1.281762 -13.650120
v -2.401247 0.779560 0.807929
v -0.112553 0.779560 0.391998
v -0.112553 -0.824172 0.391998
v -2.471417 -0.824172 0.807930
v -1.792719 0.724275 1.931089
v -0.366176 0.724275 1.679552
v -0.366176 -0.724275 1.679551
v -1.792719 -0.724275 1.931089
v -3.074614 -1.281762 -13.563912
v -4.461192 -1.281762 -13.319422
v -4.461192 1.281762 -13.319421
v -3.074614 1.281762 -13.563912
v -4.609392 -1.281762 -14.159906
v -3.222814 -1.281762 -14.404398
v -3.222814 1.281763 -14.404398
v -4.609392 1.281763 -14.159906
v -4.461192 -2.254704 -13.319420
v -3.074614 -2.254704 -13.563911
v -3.074614 1.683502 -13.563912
v -4.461192 1.683502 -13.319421
v -4.609392 -2.254704 -14.159906
v -3.222813 -2.254704 -14.404398
v -3.222813 1.697341 -14.256481
v -4.609392 1.697341 -14.011990
v -4.695916 -1.281762 -14.650610
v -3.309338 -1.281762 -14.895102
v -3.309338 0.733499 -14.728119
v -4.695916 0.733499 -14.483627
v -4.695917 -2.254704 -14.650610
v -3.309338 -2.254704 -14.895102
v -4.609392 -3.284149 -14.159906
v -3.222813 -3.284149 -14.404398
v -4.695917 -3.284149 -14.650610
v -3.309338 -3.284149 -14.895102
v -3.030204 1.281763 -13.312055
v -4.416783 1.281763 -13.067563
v -3.046642 1.683502 -13.405273
v -4.433220 1.683502 -13.160782
v -2.974155 -0.173018 -3.181329
v -2.939501 1.000000 -2.984795
v -0.969885 1.000000 -3.332092
v -1.004539 -0.173018 -3.528625
v -1.954693 1.111400 -3.158443
vt 0.0924 0.7725
vt 0.0924 0.7803
vt 0.0749 0.7822
vt 0.0684 0.7744
vt 0.1165 0.7744
vt 0.1100 0.7822
vt 0.0825 0.1188
vt 0.0093 0.1188
vt 0.0093 0.1126
vt 0.0825 0.1126
vt 0.0954 0.0308
vt 0.1686 0.0308
vt 0.1686 0.0370
vt 0.0954 0.0370
vt 0.0064 0.5742
vt 0.0640 0.5742
vt 0.0640 0.5804
vt 0.0064 0.5804
vt 0.1658 0.0639
vt 0.1626 0.1214
vt 0.0895 0.1173
vt 0.0927 0.0598
vt 0.0221 0.9251
vt 0.0222 0.9827
vt 0.0160 0.9827
vt 0.0159 0.9251
vt 0.0484 0.7843
vt 0.0136 0.7843
vt 0.0023 0.7549
vt 0.0597 0.7549
vt 0.3793 0.7418
vt 0.3932 0.6580
vt 0.4313 0.6632
vt 0.3997 0.7483
vt 0.3413 0.6540
vt 0.3486 0.6233
vt 0.3829 0.6287
vt 0.3795 0.6592
vt 0.4023 0.7592
vt 0.3751 0.7507
vt 0.3437 0.7543
vt 0.3722 0.7534
vt 0.3392 0.9950
vt 0.3113 0.9911
vt 0.3987 0.6270
vt 0.4331 0.6316
vt 0.3705 0.7436
vt 0.3490 0.7445
vt 0.1102 0.9648
vt 0.0488 0.9648
vt 0.0488 0.9310
vt 0.1102 0.9310
vt 0.0512 0.9861
vt 0.1127 0.9861
vt 0.0995 0.9941
vt 0.0512 0.9981
vt 0.1810 0.7636
vt 0.2147 0.7639
vt 0.2153 0.7744
vt 0.1815 0.7742
vt 0.1102 0.9106
vt 0.1202 0.9141
vt 0.1199 0.9310
vt 0.0512 0.9657
vt 0.1126 0.9656
vt 0.0488 0.9106
vt 0.2145 0.7914
vt 0.1807 0.7911
vt 0.2536 0.9947
vt 0.2198 0.9947
vt 0.2198 0.9742
vt 0.2536 0.9742
vt 0.0278 0.9861
vt 0.0278 0.9981
vt 0.1223 0.9656
vt 0.1126 0.9595
vt 0.1223 0.9618
vt 0.0254 0.9310
vt 0.0254 0.9106
vt 0.0254 0.9648
vt 0.1226 0.9826
vt 0.0278 0.9657
vt 0.2156 0.7485
vt 0.1818 0.7482
vt 0.1815 0.6997
vt 0.2153 0.7000
vt 0.1817 0.6764
vt 0.2155 0.6766
vt 0.0487 0.8986
vt 0.0971 0.9025
vt 0.0254 0.8986
vt 0.0007 0.9106
vt 0.0007 0.8986
vt 0.0230 0.5333
vt 0.0235 0.5671
vt 0.0115 0.5672
vt 0.0110 0.5335
vt 0.0031 0.9981
vt 0.0031 0.9861
vt 0.2198 0.9495
vt 0.2536 0.9495
vt 0.1819 0.6517
vt 0.2157 0.6520
vt 0.0601 0.5661
vt 0.0254 0.5661
vt 0.0254 0.5314
vt 0.0601 0.5314
vt 0.1739 0.7801
vt 0.1679 0.7895
vt 0.1319 0.7895
vt 0.1259 0.7801
vt 0.0631 0.6584
vt 0.0055 0.6590
vt 0.0046 0.5858
vt 0.0622 0.5851
vt 0.1327 0.0413
vt 0.1665 0.0413
vt 0.1665 0.0512
vt 0.1327 0.0512
vt 0.1199 0.9349
vt 0.1102 0.9372
vt 0.2145 0.7953
vt 0.1807 0.7950
vt 0.3704 0.9961
vt 0.3425 0.9923
vt 0.1739 0.5410
vt 0.1259 0.5410
vt 0.1168 0.5300
vt 0.0926 0.5300
vt 0.0681 0.5300
vt 0.0490 0.6647
vt 0.0130 0.6647
vt 0.1899 0.8045
vt 0.2247 0.7957
vt 0.2544 0.8753
vt 0.2003 0.8888
vt 0.2522 0.9058
vt 0.2185 0.9144
vn 0.0361 0.9781 0.2049
vn 0.1429 0.5679 0.8106
vn 0.6881 0.6809 0.2507
vn 0.7776 0.5964 0.1988
vn -0.6627 0.5964 0.4528
vn -0.5574 0.6825 0.4727
vn 0.6688 0.5773 0.4683
vn 0.6688 -0.5773 0.4683
vn 0.4683 -0.5773 -0.6688
vn 0.4683 0.5773 -0.6688
vn -0.4683 -0.5773 0.6688
vn -0.4683 0.5773 0.6688
vn -0.6688 0.5773 -0.4683
vn -0.6688 -0.5773 -0.4683
vn 0.5653 -0.5701 0.5961
vn -0.3367 -0.5667 0.7519
vn -0.7146 -0.6808 0.1604
vn 0.7192 -0.6893 -0.0866
vn 0.7537 0.6569 -0.0190
vn 0.6675 -0.7142 0.2106
vn -0.3376 0.5836 0.7385
vn -0.7020 0.6727 0.2338
vn 0.7144 -0.6794 0.1676
vn -0.6140 -0.6794 0.4018
vn -0.7339 0.6668 0.1294
vn -0.6963 -0.7071 0.1228
vn 0.5631 0.5831 0.5855
vn -0.5572 -0.7090 0.4322
vn -0.8769 -0.0108 0.4804
vn -0.5736 0.0000 0.8191
vn 0.8191 0.0000 0.5736
vn 0.9898 0.0108 0.1419
vn -0.9830 -0.0019 0.1834
vn -0.8238 0.2889 -0.4877
vn -0.7894 0.2285 -0.5697
vn -0.8158 0.0269 -0.5777
vn 0.6195 0.2944 -0.7277
vn -0.6863 0.6460 -0.3341
vn 0.4835 0.6727 -0.5600
vn 0.6966 0.7071 -0.1218
vn 0.9830 0.0019 -0.1834
vn -0.6981 0.7029 0.1361
vn -0.8384 -0.3015 0.4540
vn 0.9431 -0.3015 0.1398
vn -0.8191 0.0000 -0.5736
vn -0.5104 0.1745 0.8420
vn -0.4945 0.6327 0.5959
vn 0.5011 0.2365 -0.8324
vn 0.5571 0.0313 -0.8298
vn 0.5736 0.0000 -0.8191
vn 0.7676 0.1745 0.6167
vn 0.6685 0.6327 0.3908
vn 0.6963 -0.7071 -0.1228
vn 0.7339 0.6668 -0.1294
vn 0.0000 1.0000 0.0000
usemtl arm
s 1
f 111/81/45 60/82/46 58/83/47 109/84/48
f 108/85/49 54/86/50 60/82/46 111/81/45
f 64/87/51 63/88/52 65/89/53 68/90/54
f 61/91/55 62/92/56 67/93/57 66/94/58
f 62/95/56 64/96/51 68/97/54 67/98/57
f 67/99/57 68/100/54 65/101/53 66/102/58
f 63/103/52 61/104/55 66/105/58 65/106/53
f 60/82/46 54/86/50 58/83/47
f 75/107/59 76/108/60 72/109/61 71/110/62
f 58/111/47 70/112/63 71/113/62 56/114/64
f 72/115/61 76/116/60 73/117/65 69/118/66
f 56/114/64 110/119/67 109/120/48 58/111/47
f 107/121/68 108/122/49 53/123/69 51/124/70
f 71/113/62 70/112/63 74/125/71 75/126/59
f 54/127/50 52/128/72 72/115/61 69/118/66
f 79/129/73 78/130/74 77/131/75 80/132/76
f 81/133/77 84/134/78 96/135/79 93/136/80
f 83/137/81 84/138/78 92/139/82 91/140/83
f 80/132/76 83/141/81 91/142/83 87/143/84
f 78/144/74 79/145/73 84/134/78 81/133/77
f 80/132/76 77/131/75 82/146/85 83/141/81
f 88/147/86 87/148/84 91/140/83 92/139/82
f 86/149/52 85/150/55 89/151/87 90/152/88
f 89/153/87 81/133/77 93/136/80 97/154/89
f 88/155/86 79/145/73 104/156/90 106/157/91
f 82/146/85 77/131/75 86/158/52 90/159/88
f 77/131/75 78/130/74 85/160/55 86/158/52
f 84/134/78 79/145/73 88/155/86 92/161/82
f 78/144/74 81/133/77 89/153/87 85/162/55
f 96/163/79 95/164/92 94/165/93 93/166/80
f 93/166/80 94/165/93 98/167/94 97/168/89
f 83/141/81 82/146/85 94/169/93 95/170/92
f 98/171/94 90/159/88 100/172/52 102/173/53
f 82/146/85 90/159/88 98/171/94 94/169/93
f 84/138/78 83/137/81 95/164/92 96/163/79
f 100/174/52 99/175/55 101/176/58 102/177/53
f 89/153/87 97/154/89 101/178/58 99/179/55
f 90/152/88 89/151/87 99/180/55 100/181/52
f 97/168/89 98/167/94 102/182/53 101/183/58
f 74/184/71 73/185/65 76/186/60 75/187/59
f 110/188/67 56/189/64 52/190/72 107/191/68
f 61/192/55 63/193/52 64/194/51 62/195/56
f 104/196/90 103/197/95 105/198/96 106/199/91
f 80/132/76 87/143/84 105/200/96 103/201/95
f 87/148/84 88/147/86 106/202/91 105/203/96
f 110/119/67 55/204/97 57/205/98 109/120/48
f 55/206/97 110/188/67 107/191/68 51/207/70
f 52/128/72 54/127/50 108/122/49 107/121/68
f 53/208/69 108/85/49 111/81/45 59/209/99
f 59/209/99 111/81/45 109/84/48 57/210/98
f 56/211/64 71/110/62 72/109/61 52/212/72
f 58/213/47 54/214/50 69/215/66 70/216/63
f 70/216/63 69/215/66 73/217/65 74/218/71
o Cube.002_Cube.003
v -3.267366 1.990602 -1.871625
v -3.267366 -2.065643 -1.871626
v -3.619698 1.990602 2.169289
v -3.569753 -1.786482 1.596469
v -5.240573 1.990602 -2.043671
v -5.240573 -2.065643 -2.043672
v -5.592904 1.990602 1.997244
v -5.542960 -1.786482 1.424423
v -8.843609 1.186653 -1.872627
v -8.843609 -1.261695 -1.872627
v -9.111969 1.186653 1.205217
v -9.062025 -0.982534 0.632397
v -19.324144 0.417111 -1.811679
v -19.324144 -0.492152 -1.811679
v -19.423809 0.417111 -0.668635
v -19.373863 -0.292704 -1.241455
v -3.619698 0.968134 2.169289
v -3.267366 0.968134 -1.871625
v -5.240573 0.968134 -2.043672
v -5.592904 0.968134 1.997244
v -8.843609 0.569492 -1.872627
v -9.111969 0.569492 1.205217
v -19.324144 0.187910 -1.811679
v -19.423809 0.187910 -0.668635
v 1.254471 1.457652 -1.477363
v 0.902138 1.457652 2.563553
v 0.902138 0.968134 2.563553
v 1.254471 0.968134 -1.477363
vt 0.3325 0.6127
vt 0.2352 0.6116
vt 0.2364 0.5020
vt 0.3337 0.5031
vt 0.3319 0.6602
vt 0.2346 0.6592
vt 0.1647 0.1244
vt 0.1894 0.1263
vt 0.1855 0.1741
vt 0.1612 0.1718
vt 0.2349 0.3390
vt 0.2594 0.3392
vt 0.2590 0.3867
vt 0.2345 0.3865
vt 0.0168 0.1728
vt 0.0141 0.1245
vt 0.0977 0.1211
vt 0.0975 0.1665
vt 0.1568 0.2575
vt 0.1420 0.2561
vt 0.1196 0.5098
vt 0.1140 0.5094
vt 0.1621 0.3383
vt 0.1822 0.2520
vt 0.2261 0.2524
vt 0.1016 0.2536
vt 0.0398 0.2598
vt 0.3194 0.7480
vt 0.2452 0.7472
vt 0.2251 0.5681
vt 0.2251 0.5736
vt 0.1976 0.5736
vt 0.1976 0.5681
vt 0.2028 0.0008
vt 0.2191 0.0009
vt 0.0963 0.5095
vt 0.0819 0.5102
vt 0.2933 0.9987
vt 0.2657 0.9984
vt 0.2409 0.2525
vt 0.2246 0.0010
vt 0.2113 0.5566
vt 0.1976 0.5518
vt 0.1617 0.3858
vt 0.1893 0.8924
vt 0.1166 0.8910
vt 0.1184 0.7937
vt 0.1842 0.8087
vt 0.0112 0.2298
vt 0.0229 0.2298
vt 0.0229 0.3270
vt 0.0112 0.3270
vt 0.0077 0.8889
vt 0.0096 0.7916
vt 0.1733 0.0149
vt 0.1851 0.0158
vt 0.2453 0.4955
vt 0.2335 0.4954
vn 0.1022 0.7186 -0.6879
vn -0.0184 0.7186 0.6952
vn 0.5537 0.5396 0.6342
vn 0.6551 0.5396 -0.5288
vn -0.0578 0.7098 -0.7020
vn -0.1784 0.7098 0.6814
vn 0.1823 -0.3618 0.9142
vn -0.1555 -0.1109 0.9816
vn 0.0197 0.0000 -0.9998
vn 0.3789 -0.3015 -0.8749
vn -0.0649 -0.7373 -0.6724
vn 0.6193 -0.6021 -0.5038
vn 0.5454 -0.6035 0.5816
vn -0.1627 -0.7565 0.6334
vn -0.2477 0.6803 0.6897
vn -0.2019 -0.1913 0.9605
vn -0.6662 0.5580 0.4946
vn -0.7004 -0.2040 0.6840
vn -0.1390 -0.7205 -0.6793
vn -0.0266 0.0000 -0.9996
vn -0.2069 -0.7772 0.5943
vn -0.1245 0.6803 -0.7222
vn -0.5706 0.5580 -0.6025
vn -0.6778 0.0000 -0.7352
vn -0.5241 -0.6306 -0.5723
vn -0.7584 -0.5696 0.3168
vn 0.6253 -0.5773 -0.5250
vn 0.5250 -0.5773 0.6253
usemtl brick
s 1
f 112/219/100 114/220/101 137/221/102 136/222/103
f 112/219/100 116/223/104 118/224/105 114/220/101
f 128/225/106 114/226/101 118/227/105 131/228/107
f 130/229/108 116/230/104 112/231/100 129/232/109
f 117/233/110 113/234/111 115/235/112 119/236/113
f 131/228/107 118/227/105 122/237/114 133/238/115
f 133/238/115 122/237/114 126/239/116 135/240/117
f 130/229/108 117/241/110 121/242/118 132/243/119
f 117/233/110 119/236/113 123/244/120 121/245/118
f 118/224/105 116/223/104 120/246/121 122/247/114
f 135/248/117 126/249/116 124/250/122 134/251/123
f 132/243/119 121/242/118 125/252/124 134/253/123
f 121/245/118 123/244/120 127/254/125 125/255/124
f 122/247/114 120/246/121 124/256/122 126/257/116
f 120/258/121 132/243/119 134/253/123 124/259/122
f 127/260/125 135/248/117 134/251/123 125/261/124
f 116/230/104 130/229/108 132/243/119 120/258/121
f 123/244/120 133/238/115 135/240/117 127/254/125
f 119/236/113 131/228/107 133/238/115 123/244/120
f 117/241/110 130/229/108 129/232/109 113/262/111
f 115/235/112 128/225/106 131/228/107 119/236/113
f 113/263/111 129/264/109 128/265/106 115/266/112
f 139/267/126 136/268/103 137/269/102 138/270/127
f 128/265/106 129/264/109 139/271/126 138/272/127
f 114/226/101 128/225/106 138/273/127 137/274/102
f 129/232/109 112/231/100 136/275/103 139/276/126
