# Blender v2.76 (sub 0) OBJ File: ''
# www.blender.org
mtllib spaceDebrisA_Col_2.mtl
o Cube.001
v -1.964567 1.126333 -3.152140
v -1.910979 0.986539 -2.848229
v -1.172748 0.903031 -2.978399
v -0.979759 1.014934 -3.325789
v -2.949375 1.014933 -2.978492
v -2.649211 0.903031 -2.718059
v -2.550892 1.296697 -13.390376
v -2.550892 -1.755626 -13.390376
v -2.595581 -1.755626 -13.643817
v -2.595581 1.296697 -13.643817
v -4.915285 -1.755626 -12.973470
v -4.915285 1.296697 -12.973470
v -4.959973 1.296697 -13.226911
v -4.959973 -1.755626 -13.226911
v -1.200280 0.023715 -3.134544
v -1.014413 -0.158084 -3.522322
v -2.984029 -0.158084 -3.175026
v -4.714424 1.014935 -12.988584
v -4.714424 -0.158083 -12.988584
v -2.676744 0.023714 -2.874204
v -4.471066 1.296697 -13.313118
v -4.471066 -1.266827 -13.313119
v -3.084488 -1.266827 -13.557610
v -3.084488 1.296697 -13.557610
v -4.619266 -1.266827 -14.153604
v -4.619266 1.296698 -14.153604
v -4.705790 0.748434 -14.477324
v -4.705790 -1.266827 -14.644307
v -3.232688 1.296698 -14.398095
v -4.619266 1.712276 -14.005687
v -3.232687 1.712276 -14.250178
v -3.084488 1.698437 -13.557610
v -3.232688 -1.266827 -14.398095
v -4.471066 1.698437 -13.313118
v -3.084488 -2.239769 -13.557609
v -4.471066 -2.239769 -13.313117
v -4.619266 -2.239769 -14.153604
v -3.232687 -2.239769 -14.398095
v -4.705791 -2.239769 -14.644307
v -4.426657 1.296698 -13.061260
v -4.443094 1.698437 -13.154479
v -3.319212 0.748434 -14.721816
v -3.319212 -1.266827 -14.888799
v -3.319212 -2.239769 -14.888799
v -3.232687 -3.269213 -14.398096
v -3.319212 -3.269213 -14.888800
v -4.619266 -3.269213 -14.153605
v -4.705791 -3.269213 -14.644308
v -3.040078 1.296698 -13.305752
v -3.056516 1.698437 -13.398971
v -2.744809 -0.158083 -13.335880
v -2.744809 1.014935 -13.335880
v -3.729617 1.126335 -13.162231
v -1.015681 -0.118941 -2.529492
v -2.608434 0.884443 -2.113101
v -0.992865 0.884443 -2.400089
v -2.643270 -0.118941 -2.242504
vt 0.092400 0.772500
vt 0.092400 0.780300
vt 0.074900 0.782200
vt 0.068400 0.774400
vt 0.116500 0.774400
vt 0.110000 0.782200
vt 0.082500 0.118800
vt 0.009300 0.118800
vt 0.009300 0.112600
vt 0.082500 0.112600
vt 0.095400 0.030800
vt 0.168600 0.030800
vt 0.168600 0.037000
vt 0.095400 0.037000
vt 0.006400 0.574200
vt 0.064000 0.574200
vt 0.064000 0.580400
vt 0.006400 0.580400
vt 0.165800 0.063900
vt 0.162600 0.121400
vt 0.089500 0.117300
vt 0.092700 0.059800
vt 0.022100 0.925100
vt 0.022200 0.982700
vt 0.016000 0.982700
vt 0.015900 0.925100
vt 0.399700 0.748300
vt 0.402300 0.759200
vt 0.375100 0.750700
vt 0.379300 0.741800
vt 0.343700 0.754300
vt 0.372200 0.753400
vt 0.339200 0.995000
vt 0.311300 0.991100
vt 0.110200 0.964800
vt 0.048800 0.964800
vt 0.048800 0.931000
vt 0.110200 0.931000
vt 0.051200 0.986100
vt 0.112700 0.986100
vt 0.099500 0.994100
vt 0.051200 0.998100
vt 0.181000 0.763600
vt 0.214700 0.763900
vt 0.215300 0.774400
vt 0.181500 0.774200
vt 0.110200 0.910600
vt 0.120200 0.914100
vt 0.119900 0.931000
vt 0.051200 0.965700
vt 0.112600 0.965600
vt 0.048800 0.910600
vt 0.214500 0.791400
vt 0.180700 0.791100
vt 0.253600 0.994700
vt 0.219800 0.994700
vt 0.219800 0.974200
vt 0.253600 0.974200
vt 0.027800 0.986100
vt 0.027800 0.998100
vt 0.122300 0.965600
vt 0.112600 0.959500
vt 0.122300 0.961800
vt 0.025400 0.931000
vt 0.025400 0.910600
vt 0.025400 0.964800
vt 0.122600 0.982600
vt 0.027800 0.965700
vt 0.215600 0.748500
vt 0.181800 0.748200
vt 0.181500 0.699700
vt 0.215300 0.700000
vt 0.181700 0.676400
vt 0.215500 0.676600
vt 0.048700 0.898600
vt 0.097100 0.902500
vt 0.025400 0.898600
vt 0.000700 0.910600
vt 0.000700 0.898600
vt 0.023000 0.533300
vt 0.023500 0.567100
vt 0.011500 0.567200
vt 0.011000 0.533500
vt 0.003100 0.998100
vt 0.003100 0.986100
vt 0.219800 0.949500
vt 0.253600 0.949500
vt 0.181900 0.651700
vt 0.215700 0.652000
vt 0.173900 0.780100
vt 0.167900 0.789500
vt 0.131900 0.789500
vt 0.125900 0.780100
vt 0.063100 0.658400
vt 0.005500 0.659000
vt 0.004600 0.585800
vt 0.062200 0.585100
vt 0.132700 0.041300
vt 0.166500 0.041300
vt 0.166500 0.051200
vt 0.132700 0.051200
vt 0.119900 0.934900
vt 0.110200 0.937200
vt 0.214500 0.795300
vt 0.180700 0.795000
vt 0.370400 0.996100
vt 0.342500 0.992300
vt 0.173900 0.541000
vt 0.125900 0.541000
vt 0.349000 0.744500
vt 0.370500 0.743600
vt 0.116800 0.530000
vt 0.092600 0.530000
vt 0.068100 0.530000
vt 0.189900 0.804500
vt 0.224700 0.795700
vt 0.239550 0.835500
vt 0.195100 0.846650
vt 0.049000 0.664700
vt 0.054350 0.709800
vt 0.007650 0.709800
vt 0.013000 0.664700
vt 0.345150 0.699250
vt 0.375000 0.701400
vt 0.386250 0.699900
vt 0.415500 0.705750
vn 0.036100 0.978100 0.204900
vn 0.142900 0.567900 0.810600
vn 0.686400 0.682700 0.250500
vn 0.777700 0.596400 0.198800
vn -0.662800 0.596400 0.452800
vn -0.559200 0.680500 0.473500
vn 0.668800 0.577300 0.468300
vn 0.668800 -0.577400 0.468300
vn 0.468300 -0.577400 -0.668800
vn 0.468300 0.577400 -0.668800
vn -0.468300 -0.577400 0.668800
vn -0.468300 0.577400 0.668800
vn -0.668800 0.577400 -0.468300
vn -0.668800 -0.577400 -0.468300
vn 0.669100 -0.712500 0.211600
vn 0.714400 -0.679400 0.167600
vn -0.614000 -0.679400 0.401900
vn -0.733900 0.666800 0.129400
vn -0.696400 -0.707100 0.122800
vn -0.877000 -0.010800 0.480400
vn -0.573600 0.000000 0.819200
vn 0.819200 0.000000 0.573600
vn 0.989800 0.010900 0.142000
vn -0.983000 -0.001900 0.183500
vn -0.823800 0.288900 -0.487700
vn -0.789400 0.228500 -0.569700
vn -0.815800 0.027000 -0.577700
vn 0.619500 0.294500 -0.727700
vn -0.686300 0.646000 -0.334200
vn 0.483500 0.672700 -0.560100
vn 0.696600 0.707100 -0.121800
vn 0.983000 0.001900 -0.183500
vn -0.698200 0.702900 0.136100
vn -0.468300 -0.577300 0.668800
vn -0.838400 -0.301500 0.454000
vn 0.943100 -0.301500 0.139900
vn -0.819200 0.000000 -0.573600
vn -0.510400 0.174500 0.842100
vn -0.494500 0.632700 0.595900
vn 0.501100 0.236600 -0.832400
vn 0.557100 0.031300 -0.829900
vn 0.573600 0.000000 -0.819200
vn 0.468300 -0.577300 -0.668800
vn -0.556000 -0.710900 0.430700
vn 0.767600 0.174500 0.616700
vn 0.668500 0.632700 0.390800
vn 0.696400 -0.707100 -0.122800
vn 0.733900 0.666800 -0.129400
vn -0.000000 1.000000 0.000000
vn -0.696900 0.714200 0.065400
vn 0.681100 0.708200 -0.185700
vn 0.652400 -0.667100 -0.359600
vn -0.738200 -0.665900 -0.107800
usemtl arm
s 1
f 1/1/1 2/2/2 3/3/3 4/4/4
f 5/5/5 6/6/6 2/2/2 1/1/1
f 7/7/7 8/8/8 9/9/9 10/10/10
f 11/11/11 12/12/12 13/13/13 14/14/14
f 12/15/12 7/16/7 10/17/10 13/18/13
f 13/19/13 10/20/10 9/21/9 14/22/14
f 8/23/8 11/24/11 14/25/14 9/26/9
f 2/2/2 6/6/6 3/3/3
f 15/27/15 16/28/16 4/29/4 3/30/3
f 17/31/17 5/32/5 18/33/18 19/34/19
f 21/35/20 22/36/21 23/37/22 24/38/23
f 25/39/24 26/40/25 27/41/26 28/42/27
f 29/43/28 26/44/25 30/45/29 31/46/30
f 24/38/23 29/47/28 31/48/30 32/49/31
f 22/50/21 21/51/20 26/40/25 25/39/24
f 24/38/23 23/37/22 33/52/32 29/47/28
f 34/53/33 32/54/31 31/46/30 30/45/29
f 35/55/8 36/56/34 37/57/35 38/58/36
f 37/59/35 25/39/24 28/42/27 39/60/37
f 34/61/33 21/51/20 40/62/38 41/63/39
f 33/52/32 23/37/22 35/64/8 38/65/36
f 23/37/22 22/36/21 36/66/34 35/64/8
f 26/40/25 21/51/20 34/61/33 30/67/29
f 22/50/21 25/39/24 37/59/35 36/68/34
f 27/69/26 42/70/40 43/71/41 28/72/27
f 28/72/27 43/71/41 44/73/42 39/74/37
f 29/47/28 33/52/32 43/75/41 42/76/40
f 44/77/42 38/65/36 45/78/8 46/79/43
f 33/52/32 38/65/36 44/77/42 43/75/41
f 26/44/25 29/43/28 42/70/40 27/69/26
f 45/80/8 47/81/11 48/82/14 46/83/43
f 37/59/35 39/60/37 48/84/14 47/85/11
f 38/58/36 37/57/35 47/86/11 45/87/8
f 39/74/37 44/73/42 46/88/43 48/89/14
f 16/90/16 15/91/15 20/92/44 17/93/17
f 11/94/11 8/95/8 7/96/7 12/97/12
f 40/98/38 49/99/45 50/100/46 41/101/39
f 24/38/23 32/49/31 50/102/46 49/103/45
f 32/54/31 34/53/33 41/104/39 50/105/46
f 16/28/16 51/106/47 52/107/48 4/29/4
f 51/108/47 16/90/16 17/93/17 19/109/19
f 20/110/44 6/111/6 5/32/5 17/31/17
f 18/112/18 5/5/5 1/1/1 53/113/49
f 53/113/49 1/1/1 4/4/4 52/114/48
f 3/115/3 6/116/6 55/117/50 56/118/51
f 15/119/15 54/120/52 57/121/53 20/122/44
f 6/111/6 20/110/44 57/123/53 55/124/50
f 3/30/3 56/125/51 54/126/52 15/27/15
